<svg width="20" height="20" viewBox="0 0 20 20" fill="none" xmlns="http://www.w3.org/2000/svg">
<g clip-path="url(#clip0_1_274)">
<path fill-rule="evenodd" clip-rule="evenodd" d="M0.444763 10.1633C0.444763 14.8035 3.81487 18.6621 8.22254 19.4445V12.7035H5.88921V10.1112H8.22254V8.03683C8.22254 5.7035 9.72599 4.40772 11.8524 4.40772C12.526 4.40772 13.2524 4.51117 13.926 4.61461V7.00005H12.7337C11.5927 7.00005 11.3337 7.57017 11.3337 8.29661V10.1112H13.8225L13.408 12.7035H11.3337V19.4445C15.7413 18.6621 19.1114 14.8043 19.1114 10.1633C19.1114 5.00117 14.9114 0.777832 9.7781 0.777832C4.64476 0.777832 0.444763 5.00117 0.444763 10.1633Z" fill="white"/>
</g>
<defs>
<clipPath id="clip0_1_274">
<rect width="18.6667" height="18.6667" fill="white" transform="translate(0.444763 0.777832)"/>
</clipPath>
</defs>
</svg>
