<svg width="20" height="19" viewBox="0 0 20 19" fill="none" xmlns="http://www.w3.org/2000/svg">
<path d="M16.3474 16.2378H13.5816V11.9063C13.5816 10.8734 13.5631 9.54381 12.1431 9.54381C10.7025 9.54381 10.4821 10.6692 10.4821 11.8311V16.2375H7.71638V7.33028H10.3715V8.54755H10.4087C10.6744 8.09321 11.0584 7.71944 11.5197 7.46606C11.981 7.21268 12.5025 7.08917 13.0284 7.10869C15.8317 7.10869 16.3485 8.9526 16.3485 11.3514L16.3474 16.2378ZM4.59555 6.11279C3.7091 6.11294 2.99036 5.39442 2.99021 4.50797C2.99007 3.62152 3.70852 2.90278 4.59496 2.90264C5.48141 2.90242 6.20015 3.62094 6.2003 4.50739C6.20037 4.93308 6.03135 5.34136 5.7304 5.64243C5.42945 5.9435 5.02124 6.11269 4.59555 6.11279ZM5.97848 16.2379H3.20977V7.33028H5.97841V16.2378L5.97848 16.2379ZM17.7262 0.334H1.81997C1.0682 0.325542 0.451692 0.927761 0.442505 1.67953V17.6521C0.451401 18.4043 1.06784 19.0071 1.8199 18.9992H17.7262C18.4799 19.0085 19.0987 18.4057 19.1092 17.6521V1.67829C19.0985 0.925063 18.4795 0.322917 17.7262 0.332761" fill="white"/>
</svg>
