<svg width="20" height="17" viewBox="0 0 20 17" fill="none" xmlns="http://www.w3.org/2000/svg">
<path d="M20.0003 2.09979C19.2848 2.42622 18.516 2.64684 17.709 2.74609C18.5328 2.23811 19.1652 1.43371 19.4631 0.475284C18.68 0.953393 17.8233 1.29025 16.9299 1.4713C16.2022 0.673628 15.1655 0.17511 14.018 0.17511C11.8149 0.17511 10.0286 2.01288 10.0286 4.27954C10.0286 4.60129 10.064 4.91451 10.1319 5.215C6.8165 5.04377 3.87705 3.40973 1.90944 0.926443C1.56612 1.53265 1.3694 2.2378 1.3694 2.98991C1.3694 4.41396 2.07373 5.67022 3.14409 6.40631C2.51058 6.3859 1.89102 6.20985 1.33712 5.89287C1.33689 5.91006 1.33689 5.92726 1.33689 5.94453C1.33689 7.93321 2.71198 9.59217 4.53687 9.96925C3.94942 10.1336 3.33323 10.1577 2.73537 10.0396C3.24298 11.6703 4.71628 12.8569 6.46187 12.8901C5.09658 13.9909 3.37643 14.6471 1.50749 14.6471C1.18544 14.6471 0.867946 14.6277 0.555847 14.5898C2.32127 15.7544 4.41815 16.4339 6.67097 16.4339C14.0087 16.4339 18.0212 10.1795 18.0212 4.75555C18.0212 4.57753 18.0174 4.40052 18.0097 4.22453C18.7907 3.64363 19.4647 2.92412 20.0003 2.09979Z" fill="white"/>
</svg>
