<svg width="35" height="35" viewBox="0 0 35 35" fill="none" xmlns="http://www.w3.org/2000/svg">
<path d="M34.4111 5.38462H27.8726L26.3149 1.01923C26.2073 0.72052 26.0101 0.462316 25.7502 0.279892C25.4903 0.0974682 25.1805 -0.000280105 24.863 6.02898e-07H10.113C9.46394 6.02898e-07 8.88221 0.408654 8.66586 1.01923L7.10336 5.38462H0.564904C-1.5601 5.38462 -3.28125 7.10577 -3.28125 9.23077V31.1538C-3.28125 33.2788 -1.5601 35 0.564904 35H34.4111C36.5361 35 38.2572 33.2788 38.2572 31.1538V9.23077C38.2572 7.10577 36.5361 5.38462 34.4111 5.38462ZM17.488 27.3077C13.238 27.3077 9.79567 23.8654 9.79567 19.6154C9.79567 15.3654 13.238 11.9231 17.488 11.9231C21.738 11.9231 25.1803 15.3654 25.1803 19.6154C25.1803 23.8654 21.738 27.3077 17.488 27.3077ZM12.8726 19.6154C12.8726 20.8395 13.3589 22.0134 14.2244 22.879C15.09 23.7445 16.2639 24.2308 17.488 24.2308C18.7121 24.2308 19.886 23.7445 20.7515 22.879C21.6171 22.0134 22.1034 20.8395 22.1034 19.6154C22.1034 18.3913 21.6171 17.2174 20.7515 16.3518C19.886 15.4863 18.7121 15 17.488 15C16.2639 15 15.09 15.4863 14.2244 16.3518C13.3589 17.2174 12.8726 18.3913 12.8726 19.6154Z" fill="white"/>
</svg>
