<svg width="12" height="10" viewBox="0 0 12 10" fill="none" xmlns="http://www.w3.org/2000/svg">
<path d="M10.6206 0.239933C10.6951 0.163967 10.7839 0.103618 10.882 0.0624194C10.9801 0.0212207 11.0854 0 11.1917 0C11.2981 0 11.4034 0.0212207 11.5015 0.0624194C11.5995 0.103618 11.6884 0.163967 11.7628 0.239933C12.0748 0.555212 12.0792 1.06468 11.7737 1.38541L5.32307 9.01102C5.24983 9.09145 5.16095 9.15608 5.06188 9.20098C4.9628 9.24587 4.8556 9.27008 4.74685 9.27213C4.63809 9.27417 4.53006 9.254 4.42937 9.21286C4.32867 9.17171 4.23743 9.11046 4.16123 9.03284L0.236056 5.0553C0.084675 4.90092 -0.00012207 4.69333 -0.00012207 4.47711C-0.00012207 4.26089 0.084675 4.0533 0.236056 3.89892C0.310507 3.82295 0.399367 3.7626 0.49743 3.7214C0.595494 3.6802 0.700792 3.65898 0.807158 3.65898C0.913525 3.65898 1.01882 3.6802 1.11689 3.7214C1.21495 3.7626 1.30381 3.82295 1.37826 3.89892L4.70778 7.27317L10.5988 0.263933C10.6056 0.255502 10.6129 0.247488 10.6206 0.239933Z" fill="white"/>
</svg>
