<svg width="35" height="35" viewBox="0 0 35 35" fill="none" xmlns="http://www.w3.org/2000/svg">
<path d="M13.3872 1.47049e-07C12.7792 1.89015e-05 12.1832 0.168977 11.6656 0.488023C11.148 0.807068 10.7292 1.26365 10.456 1.80683L9.16545 4.37489H5.46867C4.0183 4.37489 2.62734 4.95104 1.60178 5.97661C0.576216 7.00217 6.10352e-05 8.39313 6.10352e-05 9.8435V27.343C6.10352e-05 28.7934 0.576216 30.1844 1.60178 31.2099C2.62734 32.2355 4.0183 32.8117 5.46867 32.8117H13.1247C13.1422 32.5623 13.1816 32.3085 13.245 32.0526L14.0653 28.7758C14.3191 27.7608 14.7981 26.8159 15.4631 26.0131C13.383 25.5104 11.5591 24.2632 10.336 22.5072C9.11293 20.7512 8.57543 18.608 8.82508 16.4826C9.07473 14.3573 10.0942 12.397 11.6909 10.9722C13.2876 9.54736 15.3509 8.75676 17.4909 8.74977C19.4525 8.75006 21.3571 9.40916 22.8993 10.6214C24.4416 11.8336 25.532 13.5286 25.9956 15.4346L26.4681 14.9643C27.5876 13.845 29.0886 13.1899 30.6706 13.1303C32.2525 13.0706 33.7986 13.6109 34.9992 14.6427V9.84131C34.9992 8.39094 34.423 6.99998 33.3974 5.97442C32.3719 4.94885 30.9809 4.3727 29.5305 4.3727H25.836L24.5563 1.81339C24.2837 1.26832 23.8646 0.809957 23.3461 0.489666C22.8276 0.169374 22.2302 -0.000182279 21.6208 1.47049e-07H13.3872ZM24.0554 17.3792C24.032 16.0918 23.6303 14.8397 22.9005 13.7788C22.1706 12.718 21.1448 11.8953 19.9507 11.4133C18.7567 10.9313 17.4472 10.8112 16.1854 11.068C14.9237 11.3248 13.7653 11.9471 12.8546 12.8575C11.944 13.7678 11.3212 14.926 11.064 16.1877C10.8068 17.4494 10.9265 18.7589 11.4082 19.9531C11.8898 21.1473 12.7121 22.1734 13.7727 22.9036C14.8333 23.6338 16.0853 24.0359 17.3727 24.0597L24.0554 17.3792ZM28.0147 16.5108L17.4493 27.0762C16.8343 27.6919 16.3981 28.4631 16.1871 29.3074L15.3669 32.5842C15.286 32.9101 15.2907 33.2513 15.3807 33.5749C15.4707 33.8984 15.6428 34.1931 15.8804 34.4304C16.1179 34.6678 16.4128 34.8396 16.7364 34.9293C17.06 35.019 17.4013 35.0234 17.7271 34.9422L21.0039 34.1241C21.8485 33.9129 22.6198 33.4758 23.2351 32.8598L33.8004 22.2944C34.5576 21.5252 34.98 20.4878 34.9756 19.4084C34.9712 18.329 34.5404 17.2951 33.777 16.532C33.0136 15.769 31.9796 15.3385 30.9002 15.3345C29.8208 15.3306 28.7836 15.7534 28.0147 16.5108Z" fill="white"/>
</svg>
