<svg width="35" height="25" viewBox="0 0 35 25" fill="none" xmlns="http://www.w3.org/2000/svg">
<path d="M34.9996 21.8549V3.33642C34.9996 1.6286 33.621 0.25 31.9132 0.25H3.08599C1.37817 0.25 -0.000427246 1.6286 -0.000427246 3.33642V21.8549C-0.000427246 23.5628 1.37817 24.9414 3.08599 24.9414H31.9132C33.621 24.9414 34.9996 23.5628 34.9996 21.8549ZM32.3041 3.11008C32.9831 3.78909 32.6127 4.48868 32.2424 4.83848L23.8885 12.4928L31.9132 20.8467C32.1601 21.1348 32.3247 21.5875 32.0366 21.8961C31.7691 22.2253 31.1518 22.2047 30.8843 21.999L21.8926 14.3241L17.4893 18.3364L13.1066 14.3241L4.1148 21.999C3.84731 22.2047 3.23003 22.2253 2.96254 21.8961C2.67447 21.5875 2.83908 21.1348 3.08599 20.8467L11.1107 12.4928L2.75677 4.83848C2.3864 4.48868 2.01603 3.78909 2.69505 3.11008C3.37406 2.43107 4.07365 2.76029 4.64978 3.25412L17.4893 13.6245L30.3494 3.25412C30.9255 2.76029 31.6251 2.43107 32.3041 3.11008Z" fill="white"/>
</svg>
