<svg width="28" height="35" viewBox="0 0 28 35" fill="none" xmlns="http://www.w3.org/2000/svg">
<path d="M14.0313 0C10.3859 0.00430059 6.89099 1.45434 4.3133 4.03203C1.7356 6.60973 0.285565 10.1046 0.281265 13.75C0.276899 16.729 1.24999 19.6272 3.05126 22C3.05126 22 3.42626 22.4937 3.48751 22.565L14.0313 35L24.58 22.5588C24.635 22.4925 25.0113 22 25.0113 22L25.0125 21.9963C26.8129 19.6245 27.7855 16.7277 27.7813 13.75C27.777 10.1046 26.3269 6.60973 23.7492 4.03203C21.1715 1.45434 17.6767 0.00430059 14.0313 0ZM14.0313 18.75C13.0424 18.75 12.0757 18.4568 11.2534 17.9073C10.4312 17.3579 9.79031 16.577 9.41187 15.6634C9.03343 14.7498 8.93441 13.7445 9.12734 12.7745C9.32026 11.8046 9.79647 10.9137 10.4957 10.2145C11.195 9.5152 12.0859 9.039 13.0558 8.84607C14.0257 8.65315 15.031 8.75216 15.9447 9.1306C16.8583 9.50904 17.6392 10.1499 18.1886 10.9721C18.738 11.7944 19.0313 12.7611 19.0313 13.75C19.0296 15.0756 18.5023 16.3464 17.565 17.2837C16.6276 18.221 15.3568 18.7483 14.0313 18.75Z" fill="white"/>
</svg>
