<svg width="30" height="30" viewBox="0 0 30 30" fill="none" xmlns="http://www.w3.org/2000/svg">
<path d="M23.0539 29.9403C16.942 29.9324 11.0828 27.5009 6.76108 23.1792C2.43935 18.8575 0.00792203 12.9982 0 6.8864C0 5.06006 0.725511 3.30852 2.01693 2.0171C3.30835 0.725682 5.05989 0.0001711 6.88623 0.0001711C7.27296 -0.00277471 7.65905 0.0323243 8.03892 0.104961C8.40615 0.159303 8.76716 0.249556 9.11676 0.374423C9.36264 0.460694 9.58175 0.609652 9.75241 0.806567C9.92307 1.00348 10.0394 1.24153 10.0898 1.49718L12.1407 10.4792C12.196 10.723 12.1893 10.9768 12.1214 11.2174C12.0534 11.4579 11.9262 11.6776 11.7515 11.8565C11.5569 12.066 11.5419 12.081 9.7006 13.0391C11.1751 16.2739 13.7623 18.8717 16.991 20.3594C17.9641 18.5032 17.979 18.4882 18.1886 18.2936C18.3674 18.1189 18.5871 17.9917 18.8277 17.9237C19.0683 17.8557 19.3221 17.8491 19.5659 17.9044L28.5479 19.9553C28.7954 20.0127 29.0241 20.1321 29.2127 20.3023C29.4013 20.4726 29.5434 20.688 29.6257 20.9283C29.7521 21.2836 29.8473 21.6493 29.9102 22.0211C29.9704 22.3974 30.0005 22.7778 30 23.1588C29.9724 24.9774 29.2265 26.7112 27.9251 27.9817C26.6237 29.2522 24.8726 29.9563 23.0539 29.9403Z" fill="white"/>
</svg>
