<svg width="35" height="32" viewBox="0 0 35 32" fill="none" xmlns="http://www.w3.org/2000/svg">
<path d="M27.9902 25.8244V28.0111C27.9902 29.055 27.5755 30.0562 26.8373 30.7944C26.0992 31.5325 25.098 31.9472 24.0541 31.9472H10.9337C9.88975 31.9472 8.88858 31.5325 8.15041 30.7944C7.41225 30.0562 6.99755 29.055 6.99755 28.0111V25.8226L3.93612 25.8244C2.8922 25.8244 1.89103 25.4097 1.15286 24.6715C0.414697 23.9333 0 22.9322 0 21.8883V11.3989C0 9.89103 0.599007 8.4449 1.66525 7.37866C2.73149 6.31242 4.17762 5.71341 5.68551 5.71341L6.9958 5.71166L6.99755 4.39437C6.99755 3.35045 7.41225 2.34928 8.15041 1.61112C8.88858 0.872949 9.88975 0.458252 10.9337 0.458252H24.0576C25.1015 0.458252 26.1027 0.872949 26.8408 1.61112C27.579 2.34928 27.9937 3.35045 27.9937 4.39437V5.71166H29.3057C30.8137 5.71259 32.2596 6.31178 33.3262 7.37772C34.3928 8.44366 34.9929 9.88925 34.9948 11.3972L35 21.8883C35.0002 22.4049 34.8987 22.9166 34.7012 23.394C34.5037 23.8714 34.2141 24.3053 33.8489 24.6708C33.4837 25.0363 33.0501 25.3263 32.5729 25.5242C32.0956 25.7222 31.584 25.8241 31.0674 25.8244H27.9902ZM24.0541 18.8268H10.9337C10.5857 18.8268 10.252 18.9651 10.0059 19.2111C9.75986 19.4572 9.62163 19.7909 9.62163 20.1389V28.0111C9.62163 28.7354 10.2094 29.3232 10.9337 29.3232H24.0541C24.4021 29.3232 24.7358 29.1849 24.9818 28.9389C25.2279 28.6928 25.3661 28.3591 25.3661 28.0111V20.1389C25.3661 19.7909 25.2279 19.4572 24.9818 19.2111C24.7358 18.9651 24.4021 18.8268 24.0541 18.8268ZM24.0576 3.08233H10.9337C10.5857 3.08233 10.252 3.22057 10.0059 3.46662C9.75986 3.71268 9.62163 4.0464 9.62163 4.39437L9.61988 5.71166H25.3696V4.39437C25.3696 4.0464 25.2314 3.71268 24.9853 3.46662C24.7393 3.22057 24.4056 3.08233 24.0576 3.08233Z" fill="white"/>
</svg>
