<svg width="35" height="32" viewBox="0 0 35 32" fill="none" xmlns="http://www.w3.org/2000/svg">
<path d="M28 14.4584C28 12.7801 26.81 11.3766 25.2333 11.0389C25.8633 9.98712 26.25 8.77087 26.25 7.45837C26.25 3.59787 23.1105 0.458374 19.25 0.458374C16.597 0.458374 14.3115 1.95812 13.125 4.14037C11.9385 1.95812 9.653 0.458374 7 0.458374C3.1395 0.458374 0 3.59787 0 7.45837C0 9.03687 0.546 10.4789 1.42975 11.6514C0.987927 11.9743 0.628289 12.3966 0.379912 12.8843C0.131536 13.3719 0.00139059 13.9111 0 14.4584V28.4584C0 30.3886 1.56975 31.9584 3.5 31.9584H24.5C26.4303 31.9584 28 30.3886 28 28.4584V23.8436L35 27.3436V15.0936L28 18.5936V14.4584ZM19.25 3.95837C21.1803 3.95837 22.75 5.52812 22.75 7.45837C22.75 9.38862 21.1803 10.9584 19.25 10.9584C17.3197 10.9584 15.75 9.38862 15.75 7.45837C15.75 5.52812 17.3197 3.95837 19.25 3.95837ZM7 3.95837C8.93025 3.95837 10.5 5.52812 10.5 7.45837C10.5 9.38862 8.93025 10.9584 7 10.9584C5.06975 10.9584 3.5 9.38862 3.5 7.45837C3.5 5.52812 5.06975 3.95837 7 3.95837Z" fill="white"/>
</svg>
