<svg width="16" height="16" viewBox="0 0 16 16" fill="none" xmlns="http://www.w3.org/2000/svg">
<path fill-rule="evenodd" clip-rule="evenodd" d="M7.43746 2.41667C6.10585 2.41667 4.82878 2.94565 3.88719 3.88724C2.94561 4.82882 2.41663 6.10589 2.41663 7.4375C2.41663 8.76911 2.94561 10.0462 3.88719 10.9878C4.82878 11.9294 6.10585 12.4583 7.43746 12.4583C8.76907 12.4583 10.0461 11.9294 10.9877 10.9878C11.9293 10.0462 12.4583 8.76911 12.4583 7.4375C12.4583 6.10589 11.9293 4.82882 10.9877 3.88724C10.0461 2.94565 8.76907 2.41667 7.43746 2.41667ZM2.47298 2.47302C3.78964 1.15636 5.57542 0.416668 7.43746 0.416668C9.2995 0.416668 11.0853 1.15636 12.4019 2.47302C13.7186 3.78968 14.4583 5.57546 14.4583 7.4375C14.4583 8.96186 13.9626 10.4351 13.0604 11.6417L15.5827 14.1685L14.1672 15.5815L11.6468 13.0566C10.4393 13.9612 8.96398 14.4583 7.43746 14.4583C5.57542 14.4583 3.78964 13.7186 2.47298 12.402C1.15632 11.0853 0.416626 9.29954 0.416626 7.4375C0.416626 5.57546 1.15632 3.78968 2.47298 2.47302Z" fill="white"/>
</svg>
